<?xml version="1.0" encoding="UTF-8" standalone="no"?>
<svg
   xmlns:dc="http://purl.org/dc/elements/1.1/"
   xmlns:cc="http://creativecommons.org/ns#"
   xmlns:rdf="http://www.w3.org/1999/02/22-rdf-syntax-ns#"
   xmlns:svg="http://www.w3.org/2000/svg"
   xmlns="http://www.w3.org/2000/svg"
   xmlns:sodipodi="http://sodipodi.sourceforge.net/DTD/sodipodi-0.dtd"
   xmlns:inkscape="http://www.inkscape.org/namespaces/inkscape"
   id="aa03ddf9-f8f2-4819-a4ce-be9b0a220741"
   data-name="Layer 1"
   width="1119.60911"
   height="699"
   viewBox="0 0 1119.60911 699"
   version="1.1"
   sodipodi:docname="error4.svg"
   inkscape:version="0.92.4 (5da689c313, 2019-01-14)">
  <metadata
     id="metadata1069">
    <rdf:RDF>
      <cc:Work
         rdf:about="">
        <dc:format>image/svg+xml</dc:format>
        <dc:type
           rdf:resource="http://purl.org/dc/dcmitype/StillImage" />
        <dc:title>server down</dc:title>
      </cc:Work>
    </rdf:RDF>
  </metadata>
  <defs
     id="defs1067" />
  <sodipodi:namedview
     pagecolor="#ffffff"
     bordercolor="#666666"
     borderopacity="1"
     objecttolerance="10"
     gridtolerance="10"
     guidetolerance="10"
     inkscape:pageopacity="0"
     inkscape:pageshadow="2"
     inkscape:window-width="1366"
     inkscape:window-height="704"
     id="namedview1065"
     showgrid="false"
     inkscape:zoom="0.52419957"
     inkscape:cx="410.56881"
     inkscape:cy="413.57771"
     inkscape:window-x="0"
     inkscape:window-y="27"
     inkscape:window-maximized="1"
     inkscape:current-layer="layer2" />
  <title
     id="title962">server down</title>
  <g
     inkscape:groupmode="layer"
     id="layer1"
     inkscape:label="Layer 1">
    <rect
       style="fill:#fafafa;fill-opacity:1;stroke-width:2.50301647"
       id="rect4817"
       width="1098.9379"
       height="678.02069"
       x="7.0347204"
       y="9.2290039"
       ry="39.120193" />
  </g>
  <g
     inkscape:groupmode="layer"
     id="layer2"
     inkscape:label="Layer 2">
    <path
       d="m 44.586182,68.353491 c 0,71.563559 44.895225,129.471879 100.377078,129.471879"
       id="path966"
       inkscape:connector-curvature="0"
       style="fill:#2f2e41;stroke-width:0.92342603" />
    <path
       d="m 144.96326,197.82537 c 0,-72.36764 50.10048,-130.92662 112.01501,-130.92662"
       id="path968"
       inkscape:connector-curvature="0"
       style="fill:#f50057;stroke-width:0.92342603" />
    <path
       d="m 80.954699,74.840834 c 0,67.977766 28.628811,122.984536 64.008561,122.984536"
       id="path970"
       inkscape:connector-curvature="0"
       style="fill:#f50057;stroke-width:0.92342603" />
    <path
       d="m 144.96326,197.82537 c 0,-92.46977 57.90832,-167.295122 129.4719,-167.295122"
       id="path972"
       inkscape:connector-curvature="0"
       style="fill:#2f2e41;stroke-width:0.92342603" />
    <path
       d="m 123.8465,198.73818 c 0,0 14.23513,-0.43843 18.52523,-3.49332 4.29013,-3.0549 21.89721,-6.7027 22.96149,-1.80325 1.06426,4.89942 21.39272,24.36754 5.32134,24.4972 -16.07138,0.12971 -37.34275,-2.50344 -41.62458,-5.11163 -4.28186,-2.60821 -5.18348,-14.089 -5.18348,-14.089 z"
       id="path974"
       inkscape:connector-curvature="0"
       style="fill:#a8a8a8;stroke-width:0.92342603" />
    <path
       d="m 170.94142,216.23325 c -16.07137,0.12971 -37.34273,-2.50336 -41.62457,-5.11159 -3.26087,-1.98629 -4.5603,-9.11372 -4.99506,-12.40201 -0.30112,0.0133 -0.47523,0.0184 -0.47523,0.0184 0,0 0.90161,11.48073 5.18347,14.08899 4.28189,2.60825 25.5532,5.24127 41.62459,5.1116 4.63917,-0.0376 6.24162,-1.68796 6.15364,-4.13258 -0.64454,1.47704 -2.41387,2.39929 -5.86684,2.42713 z"
       id="path976"
       inkscape:connector-curvature="0"
       style="opacity:0.2;stroke-width:0.92342603" />
    <ellipse
       cx="227.98701"
       cy="413.12173"
       rx="172.68066"
       ry="23.491892"
       id="ellipse978"
       style="fill:#3f3d56;stroke-width:0.92342603" />
    <ellipse
       cx="227.98701"
       cy="413.12173"
       rx="144.97789"
       ry="19.723143"
       id="ellipse980"
       style="opacity:0.1;stroke-width:0.92342603" />
    <ellipse
       cx="817.133"
       cy="631.05023"
       rx="261.32959"
       ry="35.551899"
       id="ellipse982"
       style="fill:#3f3d56;stroke-width:0.92342603" />
    <ellipse
       cx="331.41068"
       cy="617.19867"
       rx="156.98242"
       ry="21.35627"
       id="ellipse984"
       style="fill:#3f3d56;stroke-width:0.92342603" />
    <path
       d="m 471.77147,599.19199 c 83.10835,21.23878 242.86103,-27.70278 260.40612,-83.10837"
       stroke-miterlimit="10"
       id="path986"
       inkscape:connector-curvature="0"
       style="fill:none;stroke:#2f2e41;stroke-width:1.84685206;stroke-miterlimit:10" />
    <path
       d="m 330.48729,260.29463 c 0,0 120.04537,-33.24335 127.43277,73.87407 7.38743,107.11742 -98.80658,137.59048 -15.69825,158.82928"
       stroke-miterlimit="10"
       id="path988"
       inkscape:connector-curvature="0"
       style="fill:none;stroke:#2f2e41;stroke-width:1.84685206;stroke-miterlimit:10" />
    <path
       d="m 214.50712,517.26871 c 0,0 36.08038,-9.9915 38.30071,22.20329 2.22033,32.19477 -29.69693,41.35367 -4.71822,47.73713"
       stroke-miterlimit="10"
       id="path990"
       inkscape:connector-curvature="0"
       style="fill:none;stroke:#2f2e41;stroke-width:1.84685206;stroke-miterlimit:10" />
    <path
       d="m 763.66228,541.23765 -7.2743,46.44386 c 0,0 -35.81213,19.0252 -10.63172,19.58476 25.18042,0.55956 143.80813,0 143.80813,0 0,0 22.94215,0 -13.42955,-20.14432 l -7.27435,-48.6821 z"
       id="path992"
       inkscape:connector-curvature="0"
       style="fill:#2f2e41;stroke-width:0.92342603" />
    <path
       d="m 740.69072,606.76233 c 5.71878,-5.08844 15.69723,-10.39039 15.69723,-10.39039 l 7.27433,-46.44388 105.19819,0.0988 7.27434,45.78532 c 8.48166,4.69757 13.73585,8.29881 16.80969,11.06095 4.67144,-1.06583 9.77646,-5.02671 -16.80969,-19.75135 l -7.27434,-48.68207 -105.19819,2.7978 -7.2743,46.44387 c 0,0 -30.09274,15.98876 -15.69726,19.0808 z"
       id="path994"
       inkscape:connector-curvature="0"
       style="opacity:0.1;stroke-width:0.92342603" />
    <rect
       x="578.72626"
       y="217.52948"
       width="473.95129"
       height="330.14316"
       rx="16.663849"
       id="rect996"
       style="fill:#2f2e41;stroke-width:0.92342603" />
    <rect
       x="594.67389"
       y="235.15579"
       width="442.05612"
       height="247.32761"
       id="rect998"
       style="fill:#3f3d56;stroke-width:0.92342603" />
    <circle
       cx="815.70197"
       cy="227.32188"
       r="2.7978237"
       id="circle1000"
       style="fill:#f2f2f2;stroke-width:0.92342603" />
    <path
       d="m 1052.6775,502.0681 v 28.94068 a 16.661753,16.661753 0 0 1 -16.6638,16.66385 H 595.39005 A 16.661753,16.661753 0 0 1 578.72618,531.00878 V 502.0681 Z"
       id="path1002"
       inkscape:connector-curvature="0"
       style="fill:#2f2e41;stroke-width:0.92342603" />
    <polygon
       points="651.452,645.651 962.312,645.651 968.978,667.466 968.978,673.526 642.968,673.526 642.968,668.678 643.417,667.466 "
       id="polygon1004"
       transform="matrix(0.92342602,0,0,0.92342602,63.054706,21.127287)"
       style="fill:#2f2e41" />
    <path
       d="m 1055.218,632.00463 c -0.5484,2.34456 -2.6189,4.8179 -7.2968,7.15682 -16.7869,8.3935 -50.92042,-2.23824 -50.92042,-2.23824 0,0 -26.29953,-4.47651 -26.29953,-16.22737 a 20.98446,20.98446 0 0 1 2.30538,-1.37091 c 7.0577,-3.73388 30.45877,-12.94755 71.95127,0.39012 a 17.304275,17.304275 0 0 1 7.887,5.16857 c 1.6815,1.96823 2.9997,4.46481 2.3731,7.12101 z"
       id="path1006"
       inkscape:connector-curvature="0"
       style="fill:#2f2e41;stroke-width:0.92342603" />
    <path
       d="m 1055.218,632.00463 c -20.5473,7.87312 -38.8618,8.46059 -57.65766,-4.59405 -9.47902,-6.58051 -18.09072,-8.20884 -24.55371,-8.08567 7.0577,-3.73391 30.45877,-12.94756 71.95127,0.39011 a 17.304275,17.304275 0 0 1 7.887,5.16856 c 1.6815,1.96827 2.9997,4.46485 2.3731,7.12105 z"
       id="path1008"
       inkscape:connector-curvature="0"
       style="opacity:0.1;stroke-width:0.92342603" />
    <ellipse
       cx="1029.4557"
       cy="625.17218"
       rx="7.274344"
       ry="2.2382555"
       id="ellipse1010"
       style="fill:#f2f2f2;stroke-width:0.92342603" />
    <circle
       cx="815.70197"
       cy="525.01031"
       r="10.631726"
       id="circle1012"
       style="fill:#f2f2f2;stroke-width:0.92342603" />
    <polygon
       points="642.968,668.678 643.417,667.466 968.978,667.466 968.978,673.526 642.968,673.526 "
       id="polygon1014"
       transform="matrix(0.92342602,0,0,0.92342602,63.054706,21.127287)"
       style="opacity:0.1" />
    <rect
       x="144.87866"
       y="167.952"
       width="192.0726"
       height="223.4691"
       id="rect1016"
       style="fill:#2f2e41;stroke-width:0.92342603" />
    <rect
       x="125.48669"
       y="145.78979"
       width="230.85652"
       height="79.414635"
       id="rect1018"
       style="fill:#3f3d56;stroke-width:0.92342603" />
    <rect
       x="125.48669"
       y="239.97926"
       width="230.85652"
       height="79.414635"
       id="rect1020"
       style="fill:#3f3d56;stroke-width:0.92342603" />
    <rect
       x="125.48669"
       y="334.16879"
       width="230.85652"
       height="79.414635"
       id="rect1022"
       style="fill:#3f3d56;stroke-width:0.92342603" />
    <rect
       x="295.39703"
       y="159.64119"
       width="14.774817"
       height="14.774817"
       id="rect1024"
       style="opacity:0.4;fill:#f50057;stroke-width:0.92342603" />
    <rect
       x="316.63589"
       y="159.64119"
       width="14.774817"
       height="14.774817"
       id="rect1026"
       style="opacity:0.8;fill:#f50057;stroke-width:0.92342603" />
    <rect
       x="337.87463"
       y="159.64119"
       width="14.774817"
       height="14.774817"
       id="rect1028"
       style="fill:#f50057;stroke-width:0.92342603" />
    <rect
       x="295.39703"
       y="252.9073"
       width="14.774817"
       height="14.774817"
       id="rect1030"
       style="opacity:0.4;fill:#f50057;stroke-width:0.92342603" />
    <rect
       x="316.63589"
       y="252.9073"
       width="14.774817"
       height="14.774817"
       id="rect1032"
       style="opacity:0.8;fill:#f50057;stroke-width:0.92342603" />
    <rect
       x="337.87463"
       y="252.9073"
       width="14.774817"
       height="14.774817"
       id="rect1034"
       style="fill:#f50057;stroke-width:0.92342603" />
    <rect
       x="295.39703"
       y="346.17328"
       width="14.774817"
       height="14.774817"
       id="rect1036"
       style="opacity:0.4;fill:#f50057;stroke-width:0.92342603" />
    <rect
       x="316.63589"
       y="346.17328"
       width="14.774817"
       height="14.774817"
       id="rect1038"
       style="opacity:0.8;fill:#f50057;stroke-width:0.92342603" />
    <rect
       x="337.87463"
       y="346.17328"
       width="14.774817"
       height="14.774817"
       id="rect1040"
       style="fill:#f50057;stroke-width:0.92342603" />
    <circle
       cx="336.95126"
       cy="517.93054"
       r="72.950653"
       id="circle1042"
       style="fill:#2f2e41;stroke-width:0.92342603" />
    <rect
       x="303.70792"
       y="575.18286"
       width="22.162222"
       height="39.707317"
       id="rect1044"
       style="fill:#2f2e41;stroke-width:0.92342603" />
    <rect
       x="348.03235"
       y="575.18286"
       width="22.162222"
       height="39.707317"
       id="rect1046"
       style="fill:#2f2e41;stroke-width:0.92342603" />
    <ellipse
       cx="322.17642"
       cy="615.35193"
       rx="18.468519"
       ry="6.9256949"
       id="ellipse1048"
       style="fill:#2f2e41;stroke-width:0.92342603" />
    <ellipse
       cx="366.50082"
       cy="614.42841"
       rx="18.468519"
       ry="6.9256949"
       id="ellipse1050"
       style="fill:#2f2e41;stroke-width:0.92342603" />
    <circle
       cx="338.79813"
       cy="499.46201"
       r="24.932505"
       id="circle1052"
       style="fill:#ffffff;stroke-width:0.92342603" />
    <circle
       cx="338.79813"
       cy="499.46201"
       r="8.3108339"
       id="circle1054"
       style="fill:#3f3d56;stroke-width:0.92342603" />
    <path
       d="m 266.18667,450.08848 c -5.89045,-26.38002 12.93889,-53.03596 42.05649,-59.53767 29.11763,-6.50171 57.49723,9.61287 63.38768,35.99291 5.89041,26.38009 -13.40687,36.10947 -42.52448,42.61117 -29.11759,6.50172 -57.02925,7.31364 -62.91969,-19.06641 z"
       id="path1056"
       inkscape:connector-curvature="0"
       style="fill:#f50057;stroke-width:0.92342603" />
    <ellipse
       cx="174.60216"
       cy="610.82965"
       rx="36.475327"
       ry="11.450733"
       transform="rotate(-23.17116)"
       id="ellipse1058"
       style="fill:#2f2e41;stroke-width:0.92342603" />
    <ellipse
       cx="29.70211"
       cy="602.04761"
       rx="36.475327"
       ry="11.450733"
       transform="rotate(-23.17116)"
       id="ellipse1060"
       style="fill:#2f2e41;stroke-width:0.92342603" />
    <path
       d="m 379.42886,539.16927 c 0,7.13995 -18.38413,21.2388 -38.78389,21.2388 -20.39978,0 -39.70732,-13.17544 -39.70732,-20.31537 0,-7.13992 19.30754,-5.54055 39.70732,-5.54055 20.39976,0 38.78389,-2.52281 38.78389,4.61712 z"
       id="path1062"
       inkscape:connector-curvature="0"
       style="fill:#ffffff;stroke-width:0.92342603" />
    <g
       id="g3643"
       transform="matrix(0.52342774,0,0,0.52342774,465.47309,196.61277)">
      <path
         sodipodi:nodetypes="cssscccccccccccc"
         style="fill:#eeeeec;fill-opacity:1;stroke:none;stroke-width:0.499989"
         d="m 670.39446,168.07571 c -80.99023,0 -146.34053,65.51326 -146.34053,146.50353 0,80.99017 65.03431,146.12144 146.02454,146.12144 80.99023,0 146.58926,-64.87873 146.58926,-145.8689 0,-80.99026 -65.16027,-146.77837 -146.1505,-146.77837 l -0.12277,0.0225 z m -0.0112,33.27322 c 62.5897,0 113.0725,50.64059 113.0725,113.23031 0,62.58962 -50.4828,113.26186 -113.0725,113.26186 -62.58969,0 -113.38813,-50.67224 -113.38813,-113.26186 0,-62.58972 50.79844,-113.23031 113.38813,-113.23031 z"
         id="path3273"
         inkscape:connector-curvature="0" />
      <path
         style="fill:#eeeeec;fill-opacity:1;stroke:none;stroke-width:0.499989"
         d="m 574.29143,259.15436 c 0,0 96.09834,-55.30443 96.09834,-55.30443 0,0 95.73713,55.35678 95.73713,55.35678 l -0.16325,110.93576 -95.83611,55.43088 -95.96238,-55.43093 z"
         id="rect2804"
         sodipodi:nodetypes="ccccccc"
         inkscape:connector-curvature="0" />
      <path
         id="path2730"
         d="m 621.25461,397.38242 -47.01884,-27.17575 -0.10562,-54.6499 c -0.058,-30.05749 0.0356,-54.78 0.20804,-54.93894 0.22732,-0.2095 78.8344,44.88191 93.43055,53.59457 l 1.54491,0.92218 v 54.73064 c 0,43.51725 -0.10654,54.72685 -0.52012,54.7118 -0.28607,-0.011 -21.6786,-12.24793 -47.53897,-27.1946 z m 26.4221,-13.15271 c 0,-6.43956 -0.0939,-7.50219 -0.72817,-8.24222 -0.40049,-0.46729 -8.87324,-5.29008 -18.82834,-10.71737 -19.71399,-10.74761 -21.5582,-11.85013 -24.17236,-14.45093 -3.17827,-3.16198 -3.19242,-3.24363 -3.35442,-19.35757 -0.13918,-13.8435 -0.11824,-14.30274 0.68049,-14.88742 1.66832,-1.22138 1.38711,-1.35337 25.50685,11.97088 21.10665,11.6597 20.00176,11.10406 20.50328,10.31138 0.20895,-0.33025 0.3828,-3.90332 0.38631,-7.94008 0.006,-6.40286 -0.0865,-7.44534 -0.72181,-8.16812 -0.8488,-0.96583 -39.7132,-22.53385 -42.77067,-23.73583 -7.07965,-2.78329 -11.54325,-1.60266 -13.87466,3.66987 -1.43872,3.25368 -1.70599,6.7504 -1.70136,22.25861 0.006,20.26481 0.83628,25.64379 5.07364,32.87158 2.06284,3.51867 7.77514,9.34269 11.61011,11.83724 1.51542,0.98573 11.43931,6.52621 22.05309,12.31213 14.09734,7.68493 19.43794,10.40407 19.8179,10.09023 0.38045,-0.3143 0.52012,-2.4147 0.52012,-7.82238 z M 765.36906,253.25874 c -7.50301,-11.5869 -16.43128,-21.10924 -27.60757,-29.44475 -17.6796,-13.18576 -38.98194,-20.90669 -61.16612,-22.16936 l -4.99315,-0.28425 -0.10886,-16.55098 c -0.0913,-13.89065 -0.0154,-16.58709 0.47488,-16.77503 0.92023,-0.35315 13.19422,0.60198 19.60655,1.52571 8.57182,1.23477 16.07217,3.03863 24.96577,6.00437 8.9513,2.98493 14.18857,5.20073 22.20358,9.39394 19.07861,9.98143 35.73587,24.20122 48.96928,41.80358 3.79812,5.05199 9.00575,13.05937 8.82941,13.5763 -0.1195,0.35025 -28.09519,16.57754 -28.55161,16.56134 -0.14889,-0.005 -1.32901,-1.64366 -2.62221,-3.64087 z"
         style="fill:#fdd835;fill-opacity:1;stroke-width:0.499989"
         sodipodi:nodetypes="ccccscccssscsssssssssssscccsssscssccsssssssccc"
         inkscape:connector-curvature="0" />
      <path
         id="path2726"
         d="m 783.32402,378.81328 c -7.43774,-4.32161 -13.68475,-8.10732 -13.88228,-8.41272 -0.23751,-0.36724 0.41427,-2.0999 1.92414,-5.11524 15.97305,-31.89934 15.98055,-69.57841 0.0205,-101.45266 -1.24467,-2.48565 -2.1788,-4.73885 -2.07587,-5.00699 0.22684,-0.59124 27.18187,-16.15645 28.09565,-16.2239 1.89495,-0.13994 10.70231,20.00386 14.02919,32.08685 3.87776,14.08394 5.33503,24.951 5.34378,39.85007 0.009,14.83027 -1.44992,25.70764 -5.34378,39.85007 -3.22458,11.71175 -12.00699,31.95555 -13.97095,32.2039 -0.33944,0.043 -6.7026,-3.45783 -14.14028,-7.77938 h 5e-5 v 0 z"
         style="fill:#ff9800;fill-opacity:1;stroke-width:0.499989"
         sodipodi:nodetypes="cssscsscccsss"
         inkscape:connector-curvature="0" />
      <path
         id="path2724"
         d="m 671.39418,369.91772 v -54.67834 l 4.26498,-2.48735 c 23.05961,-13.44835 90.33323,-52.092 90.46176,-51.96346 0.0913,0.0913 0.17585,24.65231 0.18791,54.58015 0.0177,44.76277 -0.0762,54.5074 -0.53151,54.93929 -0.30441,0.2888 -19.46507,11.4325 -42.57919,24.76386 -23.11414,13.33136 -44.08049,25.42804 -46.59191,26.88151 -2.51142,1.45352 -4.71154,2.64274 -4.88913,2.64274 -0.17761,0 -0.32291,-24.60526 -0.32291,-54.6784 z m 28.91866,18.09505 2.49657,-1.50246 3.74489,-10.81196 3.74485,-10.81202 13.30645,-7.38573 c 7.31854,-4.06211 13.43899,-7.38569 13.60099,-7.38569 0.16197,0 1.64023,2.44214 3.285,5.42693 1.64478,2.98478 3.31607,5.82902 3.71406,6.32051 l 0.7236,0.89358 4.73393,-2.68779 c 2.60362,-1.47832 4.79311,-2.99553 4.86556,-3.37158 0.0724,-0.37604 -4.06173,-8.61111 -9.18702,-18.30009 -5.12527,-9.68899 -10.97217,-20.7643 -12.99314,-24.61176 -3.97679,-7.57104 -4.84983,-8.51736 -7.35074,-7.96803 -1.61636,0.355 -4.08749,2.82724 -5.20041,5.20274 -0.47796,1.02023 -4.99765,13.5576 -10.04374,27.86089 -5.04608,14.30328 -11.34771,32.14539 -14.0036,39.64902 -2.6559,7.50364 -4.71257,13.83125 -4.57041,14.06129 0.25266,0.40879 3.80889,-1.37372 9.13316,-4.57785 z m 19.66901,-51.37512 c 1.9978,-5.85592 3.79356,-10.59546 3.99056,-10.53236 0.58615,0.18789 7.39685,12.76187 7.13865,13.17961 -0.232,0.37539 -12.61799,7.19289 -14.04185,7.72893 -0.56237,0.21169 0.0744,-2.05686 2.91264,-10.37618 z m -180.3879,43.74824 c -6.80179,-13.68295 -11.15849,-27.01075 -13.60467,-41.61883 -1.40182,-8.37137 -1.89308,-14.76133 -1.89308,-24.62386 0,-19.29763 3.50122,-37.31443 10.67758,-54.94529 1.82834,-4.49185 7.34564,-15.8967 8.01604,-16.57004 0.2718,-0.27294 27.12063,14.79233 28.48095,15.9811 0.20008,0.17485 -0.66787,2.34495 -1.92881,4.82245 -5.93377,11.65869 -9.83504,24.66385 -11.58652,38.6244 -0.75171,5.99161 -0.64373,20.09045 0.20182,26.35422 1.8494,13.69994 5.80324,26.52081 11.65491,37.79276 1.49717,2.88394 1.79314,3.76957 1.39039,4.16036 -0.87563,0.84973 -27.2747,15.9521 -27.88434,15.9521 -0.32679,0 -1.85444,-2.57019 -3.52427,-5.92937 z"
         style="fill:#f44336;fill-opacity:1;stroke-width:0.499989"
         sodipodi:nodetypes="ccscssssccccccsscccsssssssscccscsccscssssssssscccss"
         inkscape:connector-curvature="0" />
      <path
         id="path2722"
         d="m 558.85065,249.00958 c -7.53777,-4.34775 -13.95099,-8.15092 -14.2516,-8.45156 -0.45134,-0.45129 -0.0687,-1.30017 2.19646,-4.87279 19.94724,-31.46061 52.13753,-54.52285 88.53616,-63.43041 10.19695,-2.49539 19.82247,-3.82806 29.40497,-4.07111 l 4.36901,-0.1108 v 16.64384 16.64383 l -4.99316,0.2884 c -20.23544,1.16862 -39.41235,7.54198 -56.04738,18.62709 -7.41606,4.94184 -11.63324,8.38011 -17.61347,14.36033 -5.81818,5.81817 -9.35106,10.12358 -14.00869,17.07182 -1.84089,2.74624 -3.46861,5.04114 -3.61714,5.09979 -0.14858,0.0586 -6.43736,-3.45062 -13.97516,-7.79838 z"
         style="fill:#4caf50;fill-opacity:1;stroke-width:0.499989"
         sodipodi:nodetypes="cscccccssssccccc"
         inkscape:connector-curvature="0" />
      <path
         sodipodi:nodetypes="cssscsscccsss"
         style="fill:#eeeeec;stroke-width:0.499989"
         d="m 558.27025,379.9865 c 7.46148,-4.2805 13.86352,-7.79768 14.22676,-7.81608 0.4368,-0.022 1.61144,1.40872 3.46785,4.22401 19.63913,29.7827 52.26641,48.62873 87.85033,50.74408 2.77499,0.1649 5.19339,0.48249 5.37413,0.70574 0.39859,0.49204 0.40094,31.6184 0,32.44348 -0.82628,1.71107 -22.67505,-0.73348 -34.80263,-3.89381 -14.13594,-3.68372 -24.27572,-7.85523 -37.18308,-15.29716 -12.84789,-7.40734 -21.5385,-14.10949 -31.83928,-24.55291 -8.53037,-8.64841 -21.67082,-26.37612 -20.90392,-28.20113 0.13248,-0.31545 6.34587,-4.07571 13.80729,-8.35617 l -3e-5,5e-5 v 0 z"
         id="path2802"
         inkscape:connector-curvature="0" />
      <path
         id="path2720"
         d="m 671.60152,460.73662 c -0.11947,-0.31144 -0.16827,-7.86832 -0.10823,-16.79308 l 0.109,-16.22674 4.99316,-0.28834 c 20.21913,-1.16773 39.43128,-7.55444 56.06174,-18.63659 7.35912,-4.90394 11.59403,-8.36042 17.5918,-14.35824 5.83739,-5.83742 9.38757,-10.15972 14.01604,-17.06442 1.84087,-2.74624 3.47438,-5.04309 3.63006,-5.10409 0.34177,-0.13395 27.43131,15.47176 28.21179,16.25219 0.45404,0.45404 0.0922,1.26843 -2.09995,4.7258 -13.91574,21.94787 -34.37807,40.46856 -57.53244,52.07335 -19.02206,9.53379 -37.58271,14.39584 -59.97878,15.71166 -3.75163,0.22049 -4.71979,0.16279 -4.89411,-0.2915 z m -48.98851,-174.8294 c -25.79981,-14.91897 -46.90879,-27.31265 -46.90885,-27.54149 -1.7e-4,-0.60099 93.60123,-54.50855 94.64491,-54.50855 1.16568,0 95.22818,54.3235 94.79582,54.74704 -0.94033,0.92123 -94.26099,54.47455 -94.88884,54.45325 -0.40388,-0.014 -21.84323,-12.23128 -47.64304,-27.15025 z m 31.1498,2.28865 c 0.93093,-0.47494 1.97248,-1.29562 2.31456,-1.82371 0.34208,-0.52809 3.57115,-6.6243 7.17576,-13.5471 3.60456,-6.9228 6.68412,-12.58687 6.84345,-12.58687 0.1593,0 3.27827,5.82102 6.93104,12.93556 4.56201,8.88561 7.06308,13.30951 7.98823,14.12979 2.76172,2.4486 7.97833,2.69229 11.11335,0.51914 1.55659,-1.07903 2.58258,-2.95014 13.26458,-24.19087 6.36763,-12.66177 11.47588,-23.28624 11.35167,-23.60993 -0.182,-0.47429 -1.54045,-0.58729 -7.00045,-0.58214 -3.72605,0.005 -6.98629,0.14395 -7.24502,0.3121 -0.25874,0.16809 -3.87599,7.11789 -8.03835,15.44386 -4.20979,8.42091 -7.724,14.97547 -7.91965,14.77142 -0.19346,-0.20174 -3.20449,-5.89047 -6.69124,-12.64162 -3.48674,-6.75115 -6.80471,-12.90377 -7.37329,-13.67245 -2.79319,-3.77627 -9.49865,-3.88706 -12.59021,-0.20799 -0.56266,0.66958 -4.01892,6.96699 -7.68057,13.99419 -3.66163,7.02724 -6.75804,12.77867 -6.88089,12.78102 -0.12287,0.005 -3.48616,-6.59611 -7.47404,-14.66318 -3.98785,-8.06707 -7.52081,-14.99507 -7.85097,-15.39556 -0.52535,-0.63724 -1.41055,-0.72734 -7.08932,-0.72179 -3.56896,0.005 -6.75204,0.1729 -7.07349,0.3764 -0.64136,0.40604 2.62467,7.53863 15.06732,32.90492 6.69413,13.647 7.54595,14.94497 10.54001,16.05985 2.14841,0.80003 6.15498,0.51819 8.31752,-0.58504 z"
         style="fill:#1565c0;fill-opacity:1;stroke-width:0.499989"
         sodipodi:nodetypes="ccccssssssssccccsssccccssssssssssssssssssssssccc"
         inkscape:connector-curvature="0" />
    </g>
    <g
       transform="matrix(50.107296,0,0,50.107296,617.53251,608.88331)"
       id="g4685">
      <g
         style="opacity:1;stroke-width:0.1;stroke-linejoin:round"
         id="g3777">
        <polygon
           style="fill:#2f2e41;fill-opacity:1;stroke:#2f2e41;stroke-opacity:1"
           points="-0.11569178,-0.60644329 0.65829085,-0.48936127 0.15182552,-0.26156582 -0.69378983,-0.42350152 "
           id="polygon3771" />
        <polygon
           style="fill:#2f2e41;fill-opacity:1;stroke:#2f2e41;stroke-opacity:1"
           points="0.15182552,-0.26156582 0.65829085,-0.48936127 0.61579228,0.37589044 0.140334,0.73561504 "
           id="polygon3773" />
        <polygon
           style="fill:#2f2e41;fill-opacity:1;stroke:#2f2e41;stroke-width:0.100002;stroke-miterlimit:4;stroke-dasharray:none;stroke-opacity:1"
           points="-0.69378983,-0.42350152 0.15182552,-0.26156582 0.140334,0.73561504 -0.6467479,0.48078046 "
           id="polygon3775" />
      </g>
      <g
         style="opacity:1;stroke-width:0;stroke-linejoin:round;stroke-opacity:0.5"
         id="g3833">
        <polygon
           style="fill:#ff9800;fill-opacity:1;stroke:#000000"
           points="-0.11718767,-0.63756087 0.10070276,-0.60460012 -0.050449205,-0.55152309 -0.27410546,-0.58790352 "
           id="polygon3779" />
        <polygon
           style="fill:#f44336;fill-opacity:1;stroke:#000000"
           points="0.14108195,-0.59825093 0.3738488,-0.56303979 0.22967033,-0.5061772 -0.010070018,-0.54517391 "
           id="polygon3781" />
        <polygon
           style="fill:#f44336;fill-opacity:1;stroke:#000000"
           points="0.41711859,-0.55623536 0.66633922,-0.51853522 0.5305643,-0.45746705 0.27294013,-0.49937277 "
           id="polygon3783" />
        <polygon
           style="fill:#ff9800;fill-opacity:1;stroke:#000000"
           points="-0.30273514,-0.57833059 -0.079078889,-0.54195016 -0.24663086,-0.48311428 -0.4760775,-0.52347561 "
           id="polygon3785" />
        <polygon
           style="fill:#fdd835;fill-opacity:1;stroke:#000000"
           points="-0.03756131,-0.5349083 0.20217904,-0.4959116 0.041763032,-0.43264509 -0.20511328,-0.47607242 "
           id="polygon3787" />
        <polygon
           style="fill:#f44336;fill-opacity:1;stroke:#000000"
           points="0.24683587,-0.48833632 0.50446004,-0.44643059 0.35279029,-0.37821332 0.086419865,-0.42506981 "
           id="polygon3789" />
        <polygon
           style="fill:#eeeeec;fill-opacity:1;stroke:#000000"
           points="-0.50785249,-0.51284848 -0.27840584,-0.47248716 -0.46518002,-0.4069014 -0.70034059,-0.45193475 "
           id="polygon3791" />
        <polygon
           style="fill:#fdd835;fill-opacity:1;stroke:#000000"
           points="-0.23574083,-0.46463248 0.011135483,-0.42120515 -0.16842477,-0.35038833 -0.422515,-0.39904672 "
           id="polygon3793" />
        <polygon
           style="fill:#1565c0;fill-opacity:1;stroke:#000000"
           points="0.05721881,-0.41271984 0.32358923,-0.36586335 0.15305994,-0.28916354 -0.12234145,-0.34190302 "
           id="polygon3795" />
        <polygon
           style="fill:#f44336;fill-opacity:1;stroke:#000000"
           points="0.17588274,-0.25852338 0.34641202,-0.33522319 0.33869991,-0.03482453 0.17223491,0.05801778 "
           id="polygon3797" />
        <polygon
           style="fill:#1565c0;fill-opacity:1;stroke:#000000"
           points="0.3745609,-0.34929828 0.52623066,-0.41751555 0.51534009,-0.13171748 0.36684879,-0.048899619 "
           id="polygon3799" />
        <polygon
           style="fill:#4caf50;fill-opacity:1;stroke:#000000"
           points="0.55137324,-0.43009359 0.68714816,-0.49116175 0.67376218,-0.21862933 0.54048267,-0.14429552 "
           id="polygon3801" />
        <polygon
           style="fill:#4caf50;fill-opacity:1;stroke:#000000"
           points="0.17126583,0.11115795 0.33773083,0.018315643 0.33039571,0.30402978 0.16780684,0.41131324 "
           id="polygon3803" />
        <polygon
           style="fill:#f44336;fill-opacity:1;stroke:#000000"
           points="0.36525187,0.0016559134 0.51374318,-0.08116195 0.5033569,0.19140209 0.35791676,0.28737005 "
           id="polygon3805" />
        <polygon
           style="fill:#fdd835;fill-opacity:1;stroke:#000000"
           points="0.53839258,-0.09608879 0.67167209,-0.1704226 0.6588749,0.090122256 0.52800631,0.17647525 "
           id="polygon3807" />
        <polygon
           style="fill:#1565c0;fill-opacity:1;stroke:#000000"
           points="0.1668853,0.46180465 0.32947418,0.35452119 0.32248907,0.62660185 0.16360084,0.7468143 "
           id="polygon3809" />
        <polygon
           style="fill:#ff9800;fill-opacity:1;stroke:#000000"
           points="0.35639458,0.33554145 0.50183473,0.23957349 0.49191852,0.49980191 0.34940948,0.60762211 "
           id="polygon3811" />
        <polygon
           style="fill:#4caf50;fill-opacity:1;stroke:#000000"
           points="0.52600931,0.22252483 0.6568779,0.13617183 0.6446315,0.38550302 0.51609309,0.48275325 "
           id="polygon3813" />
        <polygon
           style="fill:#4caf50;fill-opacity:1;stroke:#000000"
           points="-0.71647474,-0.42051832 -0.48131417,-0.37548497 -0.47167978,-0.080345942 -0.70162414,-0.13504693 "
           id="polygon3815" />
        <polygon
           style="fill:#f44336;fill-opacity:1;stroke:#000000"
           points="-0.43868397,-0.36630628 -0.18459375,-0.3176479 -0.18106798,-0.012175414 -0.42904959,-0.071167249 "
           id="polygon3817" />
        <polygon
           style="fill:#eeeeec;fill-opacity:1;stroke:#000000"
           points="-0.13850687,-0.30772438 0.13689452,-0.25498489 0.1332467,0.061556265 -0.1349811,-0.0022518949 "
           id="polygon3819" />
        <polygon
           style="fill:#eeeeec;fill-opacity:1;stroke:#000000"
           points="-0.69950446,-0.085065346 -0.4695601,-0.030364354 -0.4603877,0.25062225 -0.68534068,0.18720352 "
           id="polygon3821" />
        <polygon
           style="fill:#1565c0;fill-opacity:1;stroke:#000000"
           points="-0.42790388,-0.01951401 -0.17992228,0.039477825 -0.17657204,0.32974217 -0.41873148,0.2614726 "
           id="polygon3823" />
        <polygon
           style="fill:#fdd835;fill-opacity:1;stroke:#000000"
           points="-0.1349752,0.05118585 0.13325259,0.11499401 0.1297936,0.4151493 -0.13162496,0.34145019 "
           id="polygon3825" />
        <polygon
           style="fill:#eeeeec;fill-opacity:1;stroke:#000000"
           points="-0.6833195,0.23485915 -0.45836652,0.29827788 -0.44962365,0.56610618 -0.66979596,0.49482069 "
           id="polygon3827" />
        <polygon
           style="fill:#4caf50;fill-opacity:1;stroke:#000000"
           points="-0.4176409,0.31063297 -0.17548146,0.37890255 -0.17229396,0.65506689 -0.40889803,0.57846127 "
           id="polygon3829" />
        <polygon
           style="fill:#f44336;fill-opacity:1;stroke:#000000"
           points="-0.13161916,0.39220966 0.1297994,0.46590877 0.12651495,0.75091842 -0.12843166,0.668374 "
           id="polygon3831" />
      </g>
    </g>
  </g>
</svg>
