<?xml version="1.0" encoding="UTF-8" standalone="no"?>
<svg
   xmlns:dc="http://purl.org/dc/elements/1.1/"
   xmlns:cc="http://creativecommons.org/ns#"
   xmlns:rdf="http://www.w3.org/1999/02/22-rdf-syntax-ns#"
   xmlns:svg="http://www.w3.org/2000/svg"
   xmlns="http://www.w3.org/2000/svg"
   xmlns:sodipodi="http://sodipodi.sourceforge.net/DTD/sodipodi-0.dtd"
   xmlns:inkscape="http://www.inkscape.org/namespaces/inkscape"
   id="ee693e3f-f1dd-423f-8d69-5f6c61e6de89"
   data-name="Layer 1"
   width="804.8873"
   height="802.8614"
   viewBox="0 0 804.8873 802.8614"
   version="1.1"
   sodipodi:docname="tmp.svg"
   inkscape:version="0.92.4 (5da689c313, 2019-01-14)">
  <metadata
     id="metadata95">
    <rdf:RDF>
      <cc:Work
         rdf:about="">
        <dc:format>image/svg+xml</dc:format>
        <dc:type
           rdf:resource="http://purl.org/dc/dcmitype/StillImage" />
      </cc:Work>
    </rdf:RDF>
  </metadata>
  <defs
     id="defs93" />
  <sodipodi:namedview
     pagecolor="#ffffff"
     bordercolor="#666666"
     borderopacity="1"
     objecttolerance="10"
     gridtolerance="10"
     guidetolerance="10"
     inkscape:pageopacity="0"
     inkscape:pageshadow="2"
     inkscape:window-width="1366"
     inkscape:window-height="704"
     id="namedview91"
     showgrid="false"
     inkscape:zoom="1.1757945"
     inkscape:cx="264.92703"
     inkscape:cy="430.26748"
     inkscape:window-x="0"
     inkscape:window-y="27"
     inkscape:window-maximized="1"
     inkscape:current-layer="ee693e3f-f1dd-423f-8d69-5f6c61e6de89" />
  <title
     id="title2">speech to text</title>
  <path
     d="M985.61268,346.73666C942.32512,176.52014,792.753,53.6476,617.18762,48.71929,524.37149,46.11385,426.703,76.89682,355.59315,184.61769c-127.11654,192.56269,7.81161,325.62941,101.88,388.86007A588.60924,588.60924,0,0,1,579.13627,682.82821c63.5401,75.40054,185.77677,169.09631,331.35512,22.28946C1016.00676,598.71187,1014.44647,460.11768,985.61268,346.73666Z"
     id="path4"
     fill="#f2f2f2"
     transform="translate(-197.55635 -48.5693)"
     style="fill:#fafafa;fill-opacity:1" />
  <ellipse
     cx="392"
     cy="753.3614"
     rx="392"
     ry="49.5"
     fill="#3f3d56"
     id="ellipse6" />
  <ellipse
     cx="392"
     cy="744.13946"
     rx="348"
     ry="34.72194"
     opacity="0.1"
     id="ellipse8" />
  <rect
     x="199.75424"
     y="450.44785"
     width="20.4299"
     height="310.53452"
     fill="#3f3d56"
     id="rect10" />
  <polygon
     points="381.58 442.276 381.58 450.448 48.573 454.534 48.573 446.362 49.043 446.055 107.82 407.545 355.021 407.545 381.58 442.276"
     fill="#3f3d56"
     id="polygon12" />
  <path
     d="M519.89,441.81343s-73.54765,6.129-49.03176,24.51588S519.89,454.07137,519.89,454.07137Z"
     transform="translate(-197.55635 -48.5693)"
     fill="#ffb9b9"
     id="path14" />
  <polygon
     points="381.58 442.521 381.58 450.448 48.573 454.534 48.573 446.362 49.043 446.055 381.58 442.521"
     opacity="0.1"
     id="polygon16" />
  <path
     d="M630.21148,341.7069,632,335s-24.26142,43.48073-26.30441,47.56671-36.77382,38.81681-40.8598,44.94578a41.74089,41.74089,0,0,1-10.21495,10.215H515.804s-8.172,26.55887,4.086,28.60186,51.07476,10.21495,59.24672,10.21495,59.24672-46.98878,59.24672-46.98878Z"
     transform="translate(-197.55635 -48.5693)"
     fill="#575a89"
     id="path18" />
  <polygon
     points="440.827 589.371 428.569 760.982 440.827 760.982 455.128 585.285 440.827 589.371"
     fill="#3f3d56"
     id="polygon20" />
  <polygon
     points="589.965 568.941 577.707 740.552 589.965 740.552 604.266 564.855 589.965 568.941"
     fill="#3f3d56"
     id="polygon22" />
  <polygon
     points="612.438 589.371 600.18 760.982 612.438 760.982 626.739 585.285 612.438 589.371"
     fill="#3f3d56"
     id="polygon24" />
  <polygon
     points="422.44 573.027 410.182 744.638 422.44 744.638 436.741 568.941 422.44 573.027"
     fill="#3f3d56"
     id="polygon26" />
  <polygon
     points="659.427 354.427 624.696 603.672 418.354 595.5 419.743 572.496 422.44 528.081 581.793 536.253 608.352 354.427 659.427 354.427"
     fill="#3f3d56"
     id="polygon28" />
  <path
     d="M856.9834,402.99661,822.25256,652.24142l-206.342-8.172,1.38909-23.00409c43.06639,1.65482,188.609-7.64076,188.609-7.64076,0-32.60617,28.64276-160.25216,40.20591-210.428Z"
     transform="translate(-197.55635 -48.5693)"
     opacity="0.1"
     id="path30" />
  <path
     d="M495.37412,705.35917s-6.129,46.98878-18.38691,55.16074S528.062,778.90682,528.062,778.90682l4.086-61.28971Z"
     transform="translate(-197.55635 -48.5693)"
     fill="#ffb9b9"
     id="path32" />
  <path
     d="M701.71614,725.78907s10.215,12.25794,12.25794,20.42991,32.68784,12.25794,32.68784,12.25794L769.13481,733.961S740.533,709.44515,732.361,709.44515,701.71614,725.78907,701.71614,725.78907Z"
     transform="translate(-197.55635 -48.5693)"
     fill="#ffb9b9"
     id="path34" />
  <circle
     cx="450.02054"
     cy="206.31052"
     r="49.03177"
     fill="#ffb9b9"
     id="circle36" />
  <path
     d="M634.29746,288.58916s24.51588,46.98877,20.4299,55.16073,53.11775-38.81681,53.11775-38.81681-20.42991-32.68785-20.42991-42.9028S634.29746,288.58916,634.29746,288.58916Z"
     transform="translate(-197.55635 -48.5693)"
     fill="#ffb9b9"
     id="path38" />
  <path
     d="M656.77035,529.662S499.4601,505.14612,493.33113,562.34985,464.72927,693.10123,462.68628,699.2302,530.105,740.09,538.27692,727.83206s22.47289-110.32147,18.38691-118.49343-6.129-18.38691,2.043-16.34392,98.06353,20.4299,116.45044,14.30093S740.533,519.44706,740.533,519.44706Z"
     transform="translate(-197.55635 -48.5693)"
     fill="#2f2e41"
     id="path40" />
  <path
     d="M656.77035,529.662S499.4601,505.14612,493.33113,562.34985,464.72927,693.10123,462.68628,699.2302,530.105,740.09,538.27692,727.83206s22.47289-110.32147,18.38691-118.49343-6.129-18.38691,2.043-16.34392,98.06353,20.4299,116.45044,14.30093S740.533,519.44706,740.533,519.44706Z"
     transform="translate(-197.55635 -48.5693)"
     opacity="0.1"
     id="path42" />
  <path
     d="M652.68437,517.40407l6.129,51.07475s-98.06353,36.77383-61.28971,96.02054,77.63363,91.93457,77.63363,91.93457S740.533,719.6601,740.533,709.44515s-79.67662-67.41868-69.46167-67.41868,157.31025-8.172,126.6654-89.89157S652.68437,517.40407,652.68437,517.40407Z"
     transform="translate(-197.55635 -48.5693)"
     fill="#2f2e41"
     id="path44" />
  <path
     d="M493.33113,762.5629S476.98721,744.176,476.98721,748.262s-46.98878,28.60186-55.16074,30.64485-20.4299,6.129-4.086,12.25794,120.53643,8.172,120.53643,4.086,4.086-42.90279-4.086-38.81681S495.37412,770.73486,493.33113,762.5629Z"
     transform="translate(-197.55635 -48.5693)"
     fill="#2f2e41"
     id="path46" />
  <path
     d="M734.404,748.262s-22.47289-6.129-24.51588,0-4.086,30.64485-22.4729,38.81681-24.51588,20.4299,0,22.47289,91.93457-44.94578,91.93457-53.11774-8.172-32.68785-12.258-30.64486S752.79089,746.219,734.404,748.262Z"
     transform="translate(-197.55635 -48.5693)"
     fill="#2f2e41"
     id="path48" />
  <rect
     x="162.98041"
     y="726.25154"
     width="93.97755"
     height="36.77382"
     fill="#3f3d56"
     id="rect50" />
  <path
     d="M707.84511,292.67514s-7.64676-20.44952-21.1888-8.18177S646.5554,327.406,646.5554,327.406s-16.34392,6.129-22.47289,16.34392-6.129,77.63363,6.129,100.10653,12.25794,61.2897,16.34392,71.50466,0,20.4299,14.30093,20.4299-8.172-16.34392,38.81682,0,100.10652,36.77382,104.1925,22.47289-6.129-22.47289,0-28.60186,0-8.172-4.086-22.4729-8.172-16.34392-10.215-34.73083,0-36.77382-4.086-44.94579-4.086-20.4299-4.086-40.8598S769.13481,325.363,746.66192,313.105,707.84511,292.67514,707.84511,292.67514Z"
     transform="translate(-197.55635 -48.5693)"
     fill="#575a89"
     id="path52" />
  <path
     d="M599.70186,200.35822c11.38828-11.11686,23.35724-22.5916,38.5175-27.43349,20.23461-6.46254,42.793.31879,60.21319,12.47367,3.758,2.62216,7.4382,5.59111,9.69645,9.57845,2.07151,3.65759,2.796,7.90233,3.45279,12.05417,2.31284,14.62078,4.20816,29.43692,3.07741,44.19625s-5.48263,29.59417-14.572,41.27752a85.2429,85.2429,0,0,1-18.1616-29.92044c-1.03467-2.94335-1.96391-6.04478-4.054-8.36107s-5.769-3.56265-8.39242-1.874c-3.645,2.34624-3.187,8.61172-7.03553,10.60666a6.69474,6.69474,0,0,1-4.206.44095c-10.03312-1.72887-13.52735-14.02129-20.05712-21.83251-9.62451-11.5133-23.09955-10.78466-36.252-14.09344C586.66546,223.63118,590.4448,209.39468,599.70186,200.35822Z"
     transform="translate(-197.55635 -48.5693)"
     fill="#2f2e41"
     id="path54" />
  <ellipse
     cx="223.06305"
     cy="386.19824"
     rx="2.04913"
     ry="4.09827"
     fill="#fff"
     id="ellipse74" />
  <g
     transform="matrix(42.420216,0,0,42.420216,298.54055,410.94498)"
     id="g4685">
    <g
       style="opacity:1;stroke-width:0.1;stroke-linejoin:round"
       id="g3777">
      <polygon
         style="fill:#2f2e41;fill-opacity:1;stroke:#2f2e41;stroke-opacity:1"
         points="0.65829085,-0.48936127 0.15182552,-0.26156582 -0.69378983,-0.42350152 -0.11569178,-0.60644329 "
         id="polygon3771" />
      <polygon
         style="fill:#2f2e41;fill-opacity:1;stroke:#2f2e41;stroke-opacity:1"
         points="0.65829085,-0.48936127 0.61579228,0.37589044 0.140334,0.73561504 0.15182552,-0.26156582 "
         id="polygon3773" />
      <polygon
         style="fill:#2f2e41;fill-opacity:1;stroke:#2f2e41;stroke-width:0.100002;stroke-miterlimit:4;stroke-dasharray:none;stroke-opacity:1"
         points="0.15182552,-0.26156582 0.140334,0.73561504 -0.6467479,0.48078046 -0.69378983,-0.42350152 "
         id="polygon3775" />
    </g>
    <g
       style="opacity:1;stroke-width:0;stroke-linejoin:round;stroke-opacity:0.5"
       id="g3833">
      <polygon
         style="fill:#ff9800;fill-opacity:1;stroke:#000000"
         points="0.10070276,-0.60460012 -0.050449205,-0.55152309 -0.27410546,-0.58790352 -0.11718767,-0.63756087 "
         id="polygon3779" />
      <polygon
         style="fill:#f44336;fill-opacity:1;stroke:#000000"
         points="0.3738488,-0.56303979 0.22967033,-0.5061772 -0.010070018,-0.54517391 0.14108195,-0.59825093 "
         id="polygon3781" />
      <polygon
         style="fill:#f44336;fill-opacity:1;stroke:#000000"
         points="0.66633922,-0.51853522 0.5305643,-0.45746705 0.27294013,-0.49937277 0.41711859,-0.55623536 "
         id="polygon3783" />
      <polygon
         style="fill:#ff9800;fill-opacity:1;stroke:#000000"
         points="-0.079078889,-0.54195016 -0.24663086,-0.48311428 -0.4760775,-0.52347561 -0.30273514,-0.57833059 "
         id="polygon3785" />
      <polygon
         style="fill:#fdd835;fill-opacity:1;stroke:#000000"
         points="0.20217904,-0.4959116 0.041763032,-0.43264509 -0.20511328,-0.47607242 -0.03756131,-0.5349083 "
         id="polygon3787" />
      <polygon
         style="fill:#f44336;fill-opacity:1;stroke:#000000"
         points="0.50446004,-0.44643059 0.35279029,-0.37821332 0.086419865,-0.42506981 0.24683587,-0.48833632 "
         id="polygon3789" />
      <polygon
         style="fill:#eeeeec;fill-opacity:1;stroke:#000000"
         points="-0.27840584,-0.47248716 -0.46518002,-0.4069014 -0.70034059,-0.45193475 -0.50785249,-0.51284848 "
         id="polygon3791" />
      <polygon
         style="fill:#fdd835;fill-opacity:1;stroke:#000000"
         points="0.011135483,-0.42120515 -0.16842477,-0.35038833 -0.422515,-0.39904672 -0.23574083,-0.46463248 "
         id="polygon3793" />
      <polygon
         style="fill:#1565c0;fill-opacity:1;stroke:#000000"
         points="0.32358923,-0.36586335 0.15305994,-0.28916354 -0.12234145,-0.34190302 0.05721881,-0.41271984 "
         id="polygon3795" />
      <polygon
         style="fill:#f44336;fill-opacity:1;stroke:#000000"
         points="0.34641202,-0.33522319 0.33869991,-0.03482453 0.17223491,0.05801778 0.17588274,-0.25852338 "
         id="polygon3797" />
      <polygon
         style="fill:#1565c0;fill-opacity:1;stroke:#000000"
         points="0.52623066,-0.41751555 0.51534009,-0.13171748 0.36684879,-0.048899619 0.3745609,-0.34929828 "
         id="polygon3799" />
      <polygon
         style="fill:#4caf50;fill-opacity:1;stroke:#000000"
         points="0.68714816,-0.49116175 0.67376218,-0.21862933 0.54048267,-0.14429552 0.55137324,-0.43009359 "
         id="polygon3801" />
      <polygon
         style="fill:#4caf50;fill-opacity:1;stroke:#000000"
         points="0.33773083,0.018315643 0.33039571,0.30402978 0.16780684,0.41131324 0.17126583,0.11115795 "
         id="polygon3803" />
      <polygon
         style="fill:#f44336;fill-opacity:1;stroke:#000000"
         points="0.51374318,-0.08116195 0.5033569,0.19140209 0.35791676,0.28737005 0.36525187,0.0016559134 "
         id="polygon3805" />
      <polygon
         style="fill:#fdd835;fill-opacity:1;stroke:#000000"
         points="0.67167209,-0.1704226 0.6588749,0.090122256 0.52800631,0.17647525 0.53839258,-0.09608879 "
         id="polygon3807" />
      <polygon
         style="fill:#1565c0;fill-opacity:1;stroke:#000000"
         points="0.32947418,0.35452119 0.32248907,0.62660185 0.16360084,0.7468143 0.1668853,0.46180465 "
         id="polygon3809" />
      <polygon
         style="fill:#ff9800;fill-opacity:1;stroke:#000000"
         points="0.50183473,0.23957349 0.49191852,0.49980191 0.34940948,0.60762211 0.35639458,0.33554145 "
         id="polygon3811" />
      <polygon
         style="fill:#4caf50;fill-opacity:1;stroke:#000000"
         points="0.6568779,0.13617183 0.6446315,0.38550302 0.51609309,0.48275325 0.52600931,0.22252483 "
         id="polygon3813" />
      <polygon
         style="fill:#4caf50;fill-opacity:1;stroke:#000000"
         points="-0.48131417,-0.37548497 -0.47167978,-0.080345942 -0.70162414,-0.13504693 -0.71647474,-0.42051832 "
         id="polygon3815" />
      <polygon
         style="fill:#f44336;fill-opacity:1;stroke:#000000"
         points="-0.18459375,-0.3176479 -0.18106798,-0.012175414 -0.42904959,-0.071167249 -0.43868397,-0.36630628 "
         id="polygon3817" />
      <polygon
         style="fill:#eeeeec;fill-opacity:1;stroke:#000000"
         points="0.13689452,-0.25498489 0.1332467,0.061556265 -0.1349811,-0.0022518949 -0.13850687,-0.30772438 "
         id="polygon3819" />
      <polygon
         style="fill:#eeeeec;fill-opacity:1;stroke:#000000"
         points="-0.4695601,-0.030364354 -0.4603877,0.25062225 -0.68534068,0.18720352 -0.69950446,-0.085065346 "
         id="polygon3821" />
      <polygon
         style="fill:#1565c0;fill-opacity:1;stroke:#000000"
         points="-0.17992228,0.039477825 -0.17657204,0.32974217 -0.41873148,0.2614726 -0.42790388,-0.01951401 "
         id="polygon3823" />
      <polygon
         style="fill:#fdd835;fill-opacity:1;stroke:#000000"
         points="0.13325259,0.11499401 0.1297936,0.4151493 -0.13162496,0.34145019 -0.1349752,0.05118585 "
         id="polygon3825" />
      <polygon
         style="fill:#eeeeec;fill-opacity:1;stroke:#000000"
         points="-0.45836652,0.29827788 -0.44962365,0.56610618 -0.66979596,0.49482069 -0.6833195,0.23485915 "
         id="polygon3827" />
      <polygon
         style="fill:#4caf50;fill-opacity:1;stroke:#000000"
         points="-0.17548146,0.37890255 -0.17229396,0.65506689 -0.40889803,0.57846127 -0.4176409,0.31063297 "
         id="polygon3829" />
      <polygon
         style="fill:#f44336;fill-opacity:1;stroke:#000000"
         points="0.1297994,0.46590877 0.12651495,0.75091842 -0.12843166,0.668374 -0.13161916,0.39220966 "
         id="polygon3831" />
    </g>
  </g>
  <path
     d="M590.47582,459.52076s-67.71279-17.9612-73.23529-2.51184,57.81021,29.75029,57.81021,29.75029h26.55887Z"
     transform="translate(-197.55635 -48.5693)"
     fill="#ffb9b9"
     id="path62" />
  <path
     d="M732.361,325.363s-30.64485,22.47289-38.81681,55.16074-14.30094,67.41868-14.30094,67.41868l-93.97755,12.25794s-8.172,32.68784,4.086,34.73083,104.19251,8.172,118.49344,0,63.33269-110.32147,61.2897-120.53642S763.00584,327.406,732.361,325.363Z"
     transform="translate(-197.55635 -48.5693)"
     fill="#575a89"
     id="path64" />
  <g
     transform="matrix(0.34742362,0,0,0.34742362,51.252048,175.96919)"
     id="g950">
    <circle
       style="fill:#3f3d56"
       id="circle22"
       r="210.50359"
       cy="314.39328"
       cx="459.0556" />
    <circle
       style="fill:#ffffff"
       id="circle24"
       r="193.07779"
       cy="314.39328"
       cx="459.0556" />
    <circle
       style="fill:#3f3d56"
       id="circle26"
       r="25.790171"
       cy="315.0903"
       cx="458.35858" />
    <rect
       style="fill:#3f3d56"
       id="rect28"
       height="20.91095"
       width="11.15251"
       y="131.07391"
       x="452.78232" />
    <rect
       style="fill:#3f3d56"
       id="rect30"
       height="20.91095"
       width="11.15251"
       y="478.19571"
       x="452.78232" />
    <rect
       style="fill:#3f3d56"
       id="rect32"
       transform="rotate(90,451.44369,328.04327)"
       height="20.91095"
       width="11.15251"
       y="484.2338"
       x="432.91446" />
    <rect
       style="fill:#3f3d56"
       id="rect34"
       transform="rotate(90,798.5655,328.04327)"
       height="20.91095"
       width="11.15251"
       y="484.2338"
       x="780.03625" />
    <polygon
       style="fill:#3f3d56"
       id="polygon36"
       points="460.455,304.493 579.88,370.635 450.924,326.286 " />
    <rect
       style="fill:#3f3d56"
       id="rect38"
       height="62.732861"
       width="54.368481"
       y="53.006359"
       x="431.87137" />
    <ellipse
       style="fill:#3f3d56"
       id="ellipse40"
       ry="17.425791"
       rx="62.732861"
       cy="53.006359"
       cx="459.0556" />
  </g>
</svg>
